<svg width="135.1" height="37.9" viewBox="0 0 35.745 10.028" xmlns="http://www.w3.org/2000/svg"><path class="st0" d="M89.41 184.051v1.932l-4.155 2.566-1.667-1.005zm-4.922 4.974-1.667-1.005-.979.582v.952l7.567 4.498v-2.01zM115.841 187.57l-1.667 1.006-4.154-2.567v-1.931zm-5.82 4.498v2.01l7.566-4.497v-.953l-.979-.582-1.666 1.006z" style="fill:#ed6b4d;stroke-width:.264583" transform="translate(-81.842 -184.051)"/><path class="st1" d="M94.674 184.739v8.837h-2.143v-8.837zM107.348 184.739v8.837h-2.143v-5.292l-1.984 5.292h-1.747l-1.984-5.318v5.318h-2.143v-8.837h2.54l2.487 6.112 2.46-6.112z" style="fill:#bf4e34;stroke-width:.264583" transform="translate(-81.842 -184.051)"/></svg>